
<svg xmlns="http://www.w3.org/2000/svg" version="1.1" xmlns:xlink="http://www.w3.org/1999/xlink" preserveAspectRatio="none" x="0px" y="0px" width="128px" height="128px" viewBox="0 0 128 128">
<defs/>

<g id="Layer_1"/>

<g id="_____10">
<g id="_____1" transform="matrix( 1, 0, 0, 1, 63.9,64) ">
<g>
<g>
<g>
<path fill="#E0E0E0" stroke="none" d="
M 8.55 -28.95
Q 7 -34.5 6 -41.25
L -45.25 -41.25 -45.25 19.6 -12.7 19.6 -12.7 39.4 42.5 39.4 42.5 4.7 28.9 13.45
Q 22.15 7.7 17.15 -1.3 15.3 3.5 7.35 14.9
L -9.05 3.7
Q -3.05 -5.8 2.5 -12.8 -3.85 -13 -15.9 -18.1
L -9.95 -37
Q 0.55 -33.8 8.55 -28.95 Z"/>
</g>
</g>
</g>

<g transform="matrix( 6.9929656982421875, 0, 0, 6.9929656982421875, -52.95,-52.45) ">
<g>
<g>
<path fill="#E0E0E0" stroke="none" d="
M 5 11
L 2 11 2 14 5 14 5 11
M 11.65 8.65
L 13.1 7.6
Q 11.95 6.2 11 5.3 12.35 5.1 14.05 4.6
L 13.5 2.9
Q 12.2 3.3 10.6 4.05 10.85 2.55 10.9 1
L 9.1 1
Q 9.1 2.4 9.35 4.05 7.9 3.35 6.55 2.9
L 6 4.6
Q 7.55 5.1 8.95 5.3 7.85 6.4 6.95 7.6
L 8.4 8.65
Q 9.5 6.95 9.95 6 10.65 7.35 11.65 8.65 Z"/>
</g>
</g>
</g>
</g>
</g>
</svg>
