
<svg xmlns="http://www.w3.org/2000/svg" version="1.1" xmlns:xlink="http://www.w3.org/1999/xlink" preserveAspectRatio="none" x="0px" y="0px" width="128px" height="128px" viewBox="0 0 128 128">
<defs/>

<g id="Layer_1"/>

<g id="_____10">
<g id="_____1" transform="matrix( 1.067230224609375, 0, 0, 1.2601165771484375, 64,64) ">
<g transform="matrix( 1, 0, 0, 0.7406158447265625, -64,-47.4) ">
<g>
<g>
<path fill="#000000" stroke="none" d="
M 118.35 16.95
L 9.7 16.95 9.7 111.15 118.35 111.15 118.35 16.95 Z"/>
</g>
</g>

<g>
<path stroke="#FFFFFF" stroke-width="4" stroke-linejoin="round" stroke-linecap="round" fill="none" d="
M 9.7 16.95
L 118.35 16.95 118.35 111.15 9.7 111.15 9.7 16.95 Z"/>
</g>
</g>
</g>

<g id="Layer_1" transform="matrix( 1.067230224609375, 0, 0, 1.2601165771484375, 64,64) ">
<g transform="matrix( 1, 0, 0, 1, 0,-5.6) ">
<g>
<g>
<path fill="#54ED9E" stroke="none" d="
M 21.25 -7.55
L 15.5 -7.55
Q 8.25 -7.55 3 -2.35 -1.7771484375 2.4759765625 -1.9 9.2
L -1.9 4 -13.5 4 -13.5 27.2 -1.9 27.2 -1.9 10.4
Q -1.6 17.65 3 22.3 8.25 27.2 15.5 27.2
L 21.25 27.2 21.25 15.6 15.5 15.6
Q 9.7 15.6 9.7 9.8 9.7 4 15.5 4
L 21.25 4 21.25 -7.55
M -19.3 -19.15
L -30.85 -19.15 -30.85 -7.55
Q -38.1 -7.55 -43.35 -2.35 -48.25 2.6 -48.25 9.8 -48.25 17.35 -43.35 22.3 -38.1 27.2 -30.85 27.2
L -19.3 27.2 -19.3 -19.15
M -36.65 9.8
Q -36.65 4 -30.85 4
L -30.85 15.6
Q -36.65 15.6 -36.65 9.8
M -1.9 -7.55
L -1.9 -19.15 -13.5 -19.15 -13.5 -7.55 -1.9 -7.55
M 38.65 -19.15
L 27.05 -19.15 27.05 9.8
Q 27.05 17.35 32 22.3 37.2 27.2 44.45 27.2
L 44.45 15.6
Q 38.65 15.6 38.65 9.8
L 38.65 4 44.45 4 44.45 -7.55 38.65 -7.55 38.65 -19.15 Z"/>
</g>
</g>
</g>
</g>
</g>
</svg>
